<?xml version="1.0" encoding="iso-8859-1"?>
<!-- Generator: Adobe Illustrator 16.0.0, SVG Export Plug-In . SVG Version: 6.00 Build 0)  -->
<!DOCTYPE svg PUBLIC "-//W3C//DTD SVG 1.1//EN" "http://www.w3.org/Graphics/SVG/1.1/DTD/svg11.dtd">
<svg version="1.1" id="Capa_1" xmlns="http://www.w3.org/2000/svg" xmlns:xlink="http://www.w3.org/1999/xlink" x="0px" y="0px"
	 width="311.321px" height="311.321px" viewBox="0 0 311.321 311.321" style="enable-background:new 0 0 311.321 311.321;"
	 xml:space="preserve">
<g>
	<g>
		<path d="M21.177,87.5c2.087,0.458,4.018,0.424,9.965-4.143c2.635-2.026,6.537-5.443,10.14-10.205l1.578-2.096
			c13.49-17.944,45.077-59.955,90.701-57.677c37.626,2.745,64.299,31.157,77.121,82.173c0.438,1.732,0.705,2.8,1,3.614
			c0.021,0.107,0.058,0.222,0.082,0.335c3.634,6.386,6.498,13.258,8.48,20.501c0.458,0.494,0.931,0.963,1.423,1.321
			c1.171,0.849,2.532,1.257,3.885,1.257c2.053,0,4.093-0.956,5.386-2.758c2.074-2.866,1.523-6.836-1.197-9.04
			c-1.314-1.697-3.778-8.796-5.243-15.146c-0.089-0.375-0.205-0.739-0.362-1.097c-0.116-0.438-0.359-1.384-0.575-2.231
			c-2.032-8.084-7.433-29.562-20.533-49.765c-16.919-26.082-39.991-40.356-68.59-42.416c-0.045-0.007-0.086-0.007-0.137-0.014
			C81.602-2.572,47.007,43.436,32.24,63.077l-1.55,2.06c-4.045,5.345-8.826,8.673-10.472,9.637
			c-0.554,0.221-1.092,0.519-1.591,0.898c-2.067,1.565-3.077,4.236-2.522,6.769C16.666,84.968,18.647,86.945,21.177,87.5z"/>
		<path d="M179.462,66.595c-4.018-3.435-8.936-6.11-14.671-7.87c-2.095-0.638-4.25-1.026-6.454-1.199
			C165.817,59.65,172.912,62.716,179.462,66.595z"/>
		<path d="M24.137,155.709c7.255-1.976,14.308-4.625,20.554-7.31c-0.086-1.602-0.134-3.21-0.134-4.832
			c0-3.354,0.202-6.667,0.565-9.924c-6.971,3.273-15.646,6.844-24.479,9.253c-3.539,0.958-5.626,4.613-4.661,8.152
			C16.943,154.589,20.595,156.68,24.137,155.709z"/>
		<path d="M62.608,197.379c-10.55,5.78-21.107,11.156-30.396,15.123c-3.374,1.443-4.941,5.346-3.497,8.72
			c1.078,2.525,3.531,4.027,6.108,4.027c0.873,0,1.759-0.171,2.611-0.523c10.458-4.476,22.412-10.636,34.184-17.155
			C68.372,204.406,65.353,201.003,62.608,197.379z"/>
		<path d="M80.564,63.378c-3.011,3.326-5.718,6.894-8.634,10.295c-3.816,4.46-7.987,8.63-12.337,12.559
			c-4.483,4.045-8.107,6.938-13.388,9.974c-5.602,3.21-11.317,6.469-17.118,9.292c-1.999,0.972-3.72,1.608-5.961,2.279
			c-3.463,1.041-5.616,4.618-4.633,8.17c0.941,3.431,4.702,5.681,8.168,4.641c6.793-2.046,12.95-5.537,19.079-9.021
			c2.074-1.184,4.134-2.318,6.174-3.489c9.804-22.593,28.671-40.37,51.989-48.725c0.4-0.335,0.804-0.662,1.205-1
			c0.137-0.107,1.17-0.924,1.431-1.134c4.626-3.541,9.558-6.694,14.743-9.356c4.897-2.521,9.811-4.28,15.769-5.523
			c1.978-0.409,2.413-0.452,3.888-0.603c3.597-0.375,6.643-2.745,6.643-6.644c0-3.34-3.029-7.016-6.643-6.641
			C116.925,30.939,96.396,45.956,80.564,63.378z"/>
		<path d="M28.866,190.573c4.018-1.375,12.659-4.517,23.928-9.582c-1.852-3.997-3.416-8.158-4.665-12.449
			c-11.108,5.017-19.653,8.124-23.575,9.473c-0.298,0.103-0.482,0.164-0.541,0.185c-3.429,1.307-5.161,5.14-3.86,8.569
			c1.003,2.655,3.532,4.284,6.211,4.284c0.753,0,1.523-0.123,2.266-0.387L28.866,190.573z"/>
		<path d="M173.106,223.905c6.612,4.695,13.312,9.35,19.862,13.062l-15.372-15.403C176.122,222.392,174.619,223.166,173.106,223.905
			z"/>
		<path d="M102.299,227.18c-4.859-1.849-9.521-4.107-13.935-6.735c-15.667,10.312-32.479,21.19-40.083,23.236
			c-3.545,0.955-5.644,4.604-4.692,8.142c0.801,2.974,3.48,4.921,6.41,4.921c0.571,0,1.157-0.071,1.731-0.229
			c10.246-2.765,28.305-14.67,47.424-27.261C100.188,228.573,101.238,227.875,102.299,227.18z"/>
		<path d="M192.996,262.665c-5.349-1.94-14.058-7.316-22.477-12.519c-17.778-10.985-29.082-17.651-37.192-16.255
			c-8.217,1.42-25.468,13.147-54.419,34.286c-3.545,2.587-6.604,4.818-8.729,6.327c-2.991,2.115-3.707,6.263-1.595,9.254
			c1.297,1.834,3.35,2.813,5.431,2.813c1.331,0,2.666-0.394,3.833-1.219c2.207-1.561,5.308-3.826,8.897-6.44
			c11.522-8.418,42.134-30.766,48.776-31.915c4.141-0.277,19.085,8.942,28.021,14.448c9.404,5.811,18.295,11.311,24.938,13.709
			c3.449,1.253,7.262-0.537,8.511-3.99C198.235,267.711,196.446,263.91,192.996,262.665z"/>
		<path d="M170.564,295.688c-3.737-2.437-7.159-4.891-10.486-7.255c-10.889-7.782-20.307-14.503-30.631-12.703
			c-11.618,2.005-30.128,20.615-33.722,24.325c-2.553,2.635-2.484,6.844,0.151,9.396c1.29,1.242,2.957,1.869,4.62,1.869
			c1.735,0,3.47-0.678,4.768-2.026c8.897-9.185,21.539-19.63,26.446-20.478c4.849-0.836,12.179,4.387,20.652,10.43
			c3.271,2.334,6.975,4.977,10.938,7.563c3.073,2.005,7.193,1.144,9.191-1.93C174.5,301.807,173.631,297.697,170.564,295.688z"/>
		<path d="M231.393,167.651c1.66-2.812,0.959-7.672-2.381-9.082c-2.136-0.903-4.299-1.853-6.428-2.859
			c-0.615,4.475-1.588,8.876-2.867,13.191c0.855,0.387,1.718,0.766,2.594,1.133C225.644,171.45,229.391,171.083,231.393,167.651z"/>
		<path d="M216.127,193.229c-2.122-0.65-4.015-1.4-5.903-2.263l10.314,10.332C221.298,198.143,220.106,194.464,216.127,193.229z"/>
		<path d="M291.089,279.022l-89.797-89.951c-0.138-0.144-0.302-0.232-0.445-0.366c9.746-13.545,15.558-30.095,15.558-48.011
			c0-45.453-36.977-82.424-82.423-82.424c-45.45,0-82.423,36.975-82.423,82.424c0,22.41,9,42.748,23.568,57.621v0.144h0.133
			c14.962,15.201,35.755,24.653,58.721,24.653c16.515,0,31.891-4.928,44.8-13.326c0.273,0.322,0.506,0.675,0.804,0.982
			l89.791,89.955c5.988,5.995,15.707,5.988,21.71,0C297.071,294.73,297.071,285.011,291.089,279.022z M182.942,96.33v19.108h-23.716
			V91.722h19.109C179.944,93.18,181.478,94.713,182.942,96.33z M82.313,99.457c2.272-2.844,4.791-5.464,7.495-7.894h16.224v23.717
			H82.313V99.457z M81.537,180.885v-12.532h23.708v23.709H92.351C88.309,188.784,84.706,185.008,81.537,180.885z M188.903,177.562
			h-3.754v-4.086h-5.653v5.646h4.373v4.097h0.746c-3.785,4.493-8.151,8.473-12.99,11.833v-4.28h-8.069v8.079h1.975
			c-9.384,5.106-20.129,8.015-31.546,8.015c-11.683,0-22.647-3.073-32.185-8.404h9.852v-36.515H75.13v8.856
			c-4.647-9.048-7.32-19.26-7.32-30.11c0-11.476,2.946-22.277,8.104-31.696v12.683h36.518V85.166H98.11
			c10.349-6.708,22.651-10.65,35.871-10.65c13.333,0,25.728,3.999,36.135,10.807h-17.292v36.515h36.514V104.54
			c6.817,10.405,10.814,22.813,10.814,36.15C200.155,154.333,196.001,167.018,188.903,177.562z"/>
		<rect x="164.589" y="96.609" width="13.005" height="13.013"/>
		<rect x="87.676" y="96.452" width="12.998" height="13.004"/>
		<rect x="86.896" y="173.237" width="12.998" height="13.004"/>
		<polygon points="117.671,157.511 121.487,157.511 121.487,161.604 125.7,161.604 125.7,157.388 121.88,157.388 121.88,153.432 
			129.327,153.432 129.327,145.505 121.405,145.505 121.405,153.302 118.023,153.302 118.023,149.089 113.814,149.089 
			113.814,153.302 117.671,153.302 		"/>
		<rect x="117.627" y="171.06" width="4.216" height="4.209"/>
		<rect x="116.539" y="192.297" width="4.209" height="4.21"/>
		<rect x="119.735" y="164.989" width="4.206" height="4.209"/>
		<polygon points="80.123,136.573 84.336,136.573 84.336,132.364 80.123,132.364 80.123,128.285 75.914,128.285 75.914,132.494 
			80.123,132.494 		"/>
		<polygon points="86.444,149.089 82.816,149.089 82.816,142.562 75.914,142.562 75.914,149.468 82.228,149.468 82.228,153.302 
			86.444,153.302 86.444,157.111 90.65,157.111 90.65,152.904 86.444,152.904 86.444,149.577 90.65,149.577 90.65,145.368 
			86.444,145.368 		"/>
		<rect x="178.24" y="126.936" width="11.311" height="11.302"/>
		<polygon points="184,145.464 187.692,145.464 187.692,139.817 182.039,139.817 182.039,144.716 180.081,144.716 180.081,148.631 
			184,148.631 		"/>
		<rect x="183.887" y="164.989" width="5.653" height="5.65"/>
		<polygon points="155.633,168.199 155.633,162.545 150.558,162.545 150.558,156.084 143.738,156.084 143.738,162.901 
			149.983,162.901 149.983,168.199 		"/>
		<polygon points="151.26,183.219 151.26,177.562 146.202,177.562 146.202,173.476 140.548,173.476 140.548,179.125 
			145.606,179.125 145.606,183.219 		"/>
		<rect x="165.66" y="130.384" width="5.653" height="5.651"/>
		<rect x="137.633" y="147.474" width="5.653" height="5.645"/>
		<polygon points="155.264,144.649 149.131,144.649 149.131,155.948 160.438,155.948 160.438,145.554 165.215,145.554 
			165.215,153.456 173.199,153.456 173.199,146.244 176.964,146.244 176.964,142.03 172.754,142.03 172.754,145.478 
			165.421,145.478 165.421,135.403 156.345,135.403 156.345,130.317 161.639,130.317 161.639,124.672 155.982,124.672 
			155.982,129.154 150.1,129.154 150.1,135.403 155.264,135.403 		"/>
		<rect x="133.643" y="181.977" width="5.154" height="5.146"/>
		<polygon points="142.718,117.71 138.249,117.71 138.249,122.181 142.438,122.181 142.438,129.154 149.994,129.154 
			149.994,121.599 142.718,121.599 		"/>
		<rect x="140.206" y="109.428" width="4.459" height="4.468"/>
		<rect x="118.246" y="107.225" width="4.469" height="4.467"/>
		<polygon points="123.554,119.984 131.257,119.984 131.257,111.934 138.249,111.934 138.249,102.794 129.111,102.794 
			129.111,111.662 122.935,111.662 122.935,119.948 115.912,119.948 115.912,127.582 123.554,127.582 		"/>
		<rect x="139.515" y="91.441" width="7.632" height="7.631"/>
		<polygon points="121.548,102.153 129.184,102.153 129.184,94.515 123.653,94.515 123.653,91.441 116.019,91.441 116.019,99.073 
			121.548,99.073 		"/>
		<polygon points="145.627,137.851 140.483,137.851 140.483,132.143 134.813,132.143 134.813,127.498 125.385,127.498 
			125.385,131.454 119.735,131.454 119.735,140.88 129.159,140.88 129.159,136.924 132.845,136.924 132.845,139.783 
			139.255,139.783 139.255,144.227 145.627,144.227 		"/>
		<rect x="99.298" y="127.875" width="10.67" height="10.677"/>
		<polygon points="135.997,174.543 135.997,169.834 131.466,169.834 131.466,165.461 126.75,165.461 126.75,170.17 131.288,170.17 
			131.288,174.543 		"/>
		<polygon points="165.171,168.456 168.486,168.456 168.486,164.24 164.555,164.24 164.555,160.793 160.346,160.793 
			160.346,165.002 164.274,165.002 164.274,168.456 155.75,168.456 155.75,177.87 163.562,177.87 163.562,186.678 174.865,186.678 
			174.865,175.372 165.171,175.372 		"/>
		<polygon points="185.45,155.121 189.499,155.121 189.499,149.468 183.849,149.468 183.849,154.82 179.794,154.82 179.794,158.774 
			171.341,158.774 171.341,168.196 180.762,168.196 180.762,160.465 185.45,160.465 		"/>
		<rect x="130.097" y="155.948" width="9.424" height="9.421"/>
		<polygon points="102.747,142.562 96.84,142.562 96.84,137.232 89.941,137.232 89.941,144.136 95.848,144.136 95.848,149.468 
			99.298,149.468 99.298,155.409 109.968,155.409 109.968,144.731 102.747,144.731 		"/>
		<rect x="156.704" y="180.204" width="4.216" height="4.209"/>
		<polygon points="129.341,178.25 118.64,178.25 118.64,188.951 126.736,188.951 126.736,192.147 121.877,192.147 121.877,197.294 
			127.021,197.294 127.021,194.72 134.204,194.72 134.204,187.253 129.341,187.253 		"/>
		<rect x="136.216" y="190.046" width="8.72" height="8.712"/>
		<rect x="149.956" y="186.097" width="8.716" height="8.712"/>
	</g>
</g>
<g>
</g>
<g>
</g>
<g>
</g>
<g>
</g>
<g>
</g>
<g>
</g>
<g>
</g>
<g>
</g>
<g>
</g>
<g>
</g>
<g>
</g>
<g>
</g>
<g>
</g>
<g>
</g>
<g>
</g>
</svg>
